<svg width="1400" height="1000" xmlns="http://www.w3.org/2000/svg"><g><path d="M-47.991535178152844,-16.318583536194637L-67.02785229426809,462.88691025343724L-55.55808898177929,197.41680591949262Z" fill="#20494f" stroke="#20494f"/><path d="M-47.991535178152844,-16.318583536194637L-55.55808898177929,197.41680591949262L-48.68707331712358,66.03639054228552Z" fill="#2e3d3e" stroke="#2e3d3e"/><path d="M-47.991535178152844,-16.318583536194637L-48.68707331712358,66.03639054228552L27.264416547259316,54.14273923262954Z" fill="#323a3b" stroke="#323a3b"/><path d="M-47.991535178152844,-16.318583536194637L27.264416547259316,54.14273923262954L59.02583711198531,-64.90659487433732Z" fill="#343838" stroke="#343838"/><path d="M59.02583711198531,-64.90659487433732L27.264416547259316,54.14273923262954L122.28336367639713,-50.37856145994738Z" fill="#303b3c" stroke="#303b3c"/><path d="M59.02583711198531,-64.90659487433732L122.28336367639713,-50.37856145994738L185.805143652251,-42.96446493710391Z" fill="#303c3d" stroke="#303c3d"/><path d="M59.02583711198531,-64.90659487433732L185.805143652251,-42.96446493710391L528.4972768242005,-62.526336807059124Z" fill="#244549" stroke="#244549"/><path d="M59.02583711198531,-64.90659487433732L528.4972768242005,-62.526336807059124L960.001889943378,-69.42865648190491Z" fill="#23585f" stroke="#23585f"/><path d="M122.28336367639713,-50.37856145994738L27.264416547259316,54.14273923262954L137.7011026639957,59.129692987771705Z" fill="#294143" stroke="#294143"/><path d="M122.28336367639713,-50.37856145994738L137.7011026639957,59.129692987771705L185.805143652251,-42.96446493710391Z" fill="#284244" stroke="#284244"/><path d="M185.805143652251,-42.96446493710391L137.7011026639957,59.129692987771705L217.21671652863733,54.25693162716925Z" fill="#21474c" stroke="#21474c"/><path d="M185.805143652251,-42.96446493710391L217.21671652863733,54.25693162716925L271.9614992721472,-28.83801021031104Z" fill="#20474c" stroke="#20474c"/><path d="M185.805143652251,-42.96446493710391L271.9614992721472,-28.83801021031104L528.4972768242005,-62.526336807059124Z" fill="#204b51" stroke="#204b51"/><path d="M271.9614992721472,-28.83801021031104L217.21671652863733,54.25693162716925L308.86702391318977,19.90991080761887Z" fill="#1a4c52" stroke="#1a4c52"/><path d="M271.9614992721472,-28.83801021031104L308.86702391318977,19.90991080761887L381.5892251045443,-20.17169811297208Z" fill="#1c4e54" stroke="#1c4e54"/><path d="M271.9614992721472,-28.83801021031104L381.5892251045443,-20.17169811297208L528.4972768242005,-62.526336807059124Z" fill="#1f5158" stroke="#1f5158"/><path d="M381.5892251045443,-20.17169811297208L308.86702391318977,19.90991080761887L372.41175263770856,58.084890318568796Z" fill="#18545b" stroke="#18545b"/><path d="M381.5892251045443,-20.17169811297208L372.41175263770856,58.084890318568796L459.0963742311578,46.700169562827796Z" fill="#175861" stroke="#175861"/><path d="M381.5892251045443,-20.17169811297208L459.0963742311578,46.700169562827796L480.88652564096265,-15.381977306678891Z" fill="#1a5961" stroke="#1a5961"/><path d="M381.5892251045443,-20.17169811297208L480.88652564096265,-15.381977306678891L528.4972768242005,-62.526336807059124Z" fill="#1f585e" stroke="#1f585e"/><path d="M480.88652564096265,-15.381977306678891L459.0963742311578,46.700169562827796L570.7249694294296,47.971128524513915Z" fill="#17606a" stroke="#17606a"/><path d="M480.88652564096265,-15.381977306678891L570.7249694294296,47.971128524513915L528.4972768242005,-62.526336807059124Z" fill="#1c5f67" stroke="#1c5f67"/><path d="M528.4972768242005,-62.526336807059124L570.7249694294296,47.971128524513915L661.9277315423824,-55.49366995575838Z" fill="#1d626a" stroke="#1d626a"/><path d="M528.4972768242005,-62.526336807059124L661.9277315423824,-55.49366995575838L960.001889943378,-69.42865648190491Z" fill="#226770" stroke="#226770"/><path d="M661.9277315423824,-55.49366995575838L570.7249694294296,47.971128524513915L631.1474860762246,68.38229748653248Z" fill="#186973" stroke="#186973"/><path d="M661.9277315423824,-55.49366995575838L631.1474860762246,68.38229748653248L724.4148563430645,57.230466175824404Z" fill="#176d77" stroke="#176d77"/><path d="M661.9277315423824,-55.49366995575838L724.4148563430645,57.230466175824404L735.3448138386011,-16.50684733176604Z" fill="#1b6c77" stroke="#1b6c77"/><path d="M661.9277315423824,-55.49366995575838L735.3448138386011,-16.50684733176604L804.0288358123507,-54.76961350417696Z" fill="#206b74" stroke="#206b74"/><path d="M661.9277315423824,-55.49366995575838L804.0288358123507,-54.76961350417696L960.001889943378,-69.42865648190491Z" fill="#226e78" stroke="#226e78"/><path d="M735.3448138386011,-16.50684733176604L724.4148563430645,57.230466175824404L811.0957820492331,25.750939827412367Z" fill="#17727e" stroke="#17727e"/><path d="M735.3448138386011,-16.50684733176604L811.0957820492331,25.750939827412367L804.0288358123507,-54.76961350417696Z" fill="#1c717c" stroke="#1c717c"/><path d="M804.0288358123507,-54.76961350417696L811.0957820492331,25.750939827412367L916.6051188192796,-17.42573612718843Z" fill="#1c7581" stroke="#1c7581"/><path d="M804.0288358123507,-54.76961350417696L916.6051188192796,-17.42573612718843L960.001889943378,-69.42865648190491Z" fill="#207681" stroke="#207681"/><path d="M916.6051188192796,-17.42573612718843L811.0957820492331,25.750939827412367L914.015745971119,56.88803378609009Z" fill="#177b89" stroke="#177b89"/><path d="M916.6051188192796,-17.42573612718843L914.015745971119,56.88803378609009L999.7539329458959,15.30936930095777Z" fill="#18808e" stroke="#18808e"/><path d="M916.6051188192796,-17.42573612718843L999.7539329458959,15.30936930095777L960.001889943378,-69.42865648190491Z" fill="#1d7d89" stroke="#1d7d89"/><path d="M960.001889943378,-69.42865648190491L999.7539329458959,15.30936930095777L1070.8015838311985,-50.77142924652435Z" fill="#1f808c" stroke="#1f808c"/><path d="M960.001889943378,-69.42865648190491L1070.8015838311985,-50.77142924652435L1227.1899462270085,-50.50623953458853Z" fill="#228490" stroke="#228490"/><path d="M1070.8015838311985,-50.77142924652435L999.7539329458959,15.30936930095777L1082.2678600787185,65.52237278898247Z" fill="#198796" stroke="#198796"/><path d="M1070.8015838311985,-50.77142924652435L1082.2678600787185,65.52237278898247L1152.6486532960553,-20.335620067780837Z" fill="#1a8a99" stroke="#1a8a99"/><path d="M1070.8015838311985,-50.77142924652435L1152.6486532960553,-20.335620067780837L1227.1899462270085,-50.50623953458853Z" fill="#208a97" stroke="#208a97"/><path d="M1152.6486532960553,-20.335620067780837L1082.2678600787185,65.52237278898247L1143.954991379287,54.893901952309534Z" fill="#16909f" stroke="#16909f"/><path d="M1152.6486532960553,-20.335620067780837L1143.954991379287,54.893901952309534L1221.0647908446845,39.66363821178675Z" fill="#17929f" stroke="#17929f"/><path d="M1152.6486532960553,-20.335620067780837L1221.0647908446845,39.66363821178675L1227.1899462270085,-50.50623953458853Z" fill="#1c919a" stroke="#1c919a"/><path d="M1227.1899462270085,-50.50623953458853L1221.0647908446845,39.66363821178675L1298.6248351738323,47.87742969579995Z" fill="#19979d" stroke="#19979d"/><path d="M1227.1899462270085,-50.50623953458853L1298.6248351738323,47.87742969579995L1324.8119193315506,-30.827240014914423Z" fill="#1c979a" stroke="#1c979a"/><path d="M1227.1899462270085,-50.50623953458853L1324.8119193315506,-30.827240014914423L1405.7241569994949,-33.64452514797449Z" fill="#1f9897" stroke="#1f9897"/><path d="M1227.1899462270085,-50.50623953458853L1405.7241569994949,-33.64452514797449L1488.9425879670307,-31.297115879133344Z" fill="#1f9897" stroke="#1f9897"/><path d="M1324.8119193315506,-30.827240014914423L1298.6248351738323,47.87742969579995L1405.7241569994949,-33.64452514797449Z" fill="#1b9b9b" stroke="#1b9b9b"/><path d="M1405.7241569994949,-33.64452514797449L1298.6248351738323,47.87742969579995L1428.2478814187925,69.03550248825923Z" fill="#179e9f" stroke="#179e9f"/><path d="M1405.7241569994949,-33.64452514797449L1428.2478814187925,69.03550248825923L1494.2375275993254,24.44996353238821Z" fill="#189e9e" stroke="#189e9e"/><path d="M1405.7241569994949,-33.64452514797449L1494.2375275993254,24.44996353238821L1488.9425879670307,-31.297115879133344Z" fill="#1c9a9a" stroke="#1c9a9a"/><path d="M-48.68707331712358,66.03639054228552L-55.55808898177929,197.41680591949262L-29.841369007481262,102.64407065580599Z" fill="#284144" stroke="#284144"/><path d="M-48.68707331712358,66.03639054228552L-29.841369007481262,102.64407065580599L27.264416547259316,54.14273923262954Z" fill="#2c3e40" stroke="#2c3e40"/><path d="M27.264416547259316,54.14273923262954L-29.841369007481262,102.64407065580599L42.430232538608834,105.07126917946152Z" fill="#284244" stroke="#284244"/><path d="M27.264416547259316,54.14273923262954L42.430232538608834,105.07126917946152L137.7011026639957,59.129692987771705Z" fill="#244448" stroke="#244448"/><path d="M137.7011026639957,59.129692987771705L42.430232538608834,105.07126917946152L143.60278755426407,117.54292142693885Z" fill="#1e494e" stroke="#1e494e"/><path d="M137.7011026639957,59.129692987771705L143.60278755426407,117.54292142693885L217.21671652863733,54.25693162716925Z" fill="#1b4b51" stroke="#1b4b51"/><path d="M217.21671652863733,54.25693162716925L143.60278755426407,117.54292142693885L211.1821756104473,130.616663886467Z" fill="#165057" stroke="#165057"/><path d="M217.21671652863733,54.25693162716925L211.1821756104473,130.616663886467L319.81328627327457,140.97332783974707Z" fill="#0f545d" stroke="#0f545d"/><path d="M217.21671652863733,54.25693162716925L319.81328627327457,140.97332783974707L308.86702391318977,19.90991080761887Z" fill="#11535b" stroke="#11535b"/><path d="M308.86702391318977,19.90991080761887L319.81328627327457,140.97332783974707L372.41175263770856,58.084890318568796Z" fill="#115760" stroke="#115760"/><path d="M372.41175263770856,58.084890318568796L319.81328627327457,140.97332783974707L409.4857884454541,115.8775840816088Z" fill="#0d5d67" stroke="#0d5d67"/><path d="M372.41175263770856,58.084890318568796L409.4857884454541,115.8775840816088L459.0963742311578,46.700169562827796Z" fill="#115d67" stroke="#115d67"/><path d="M459.0963742311578,46.700169562827796L409.4857884454541,115.8775840816088L458.9582631213125,123.7878417770844Z" fill="#0e626d" stroke="#0e626d"/><path d="M459.0963742311578,46.700169562827796L458.9582631213125,123.7878417770844L529.3658807536121,130.92497121193446Z" fill="#0d6671" stroke="#0d6671"/><path d="M459.0963742311578,46.700169562827796L529.3658807536121,130.92497121193446L570.7249694294296,47.971128524513915Z" fill="#106771" stroke="#106771"/><path d="M570.7249694294296,47.971128524513915L529.3658807536121,130.92497121193446L632.1251592552289,143.45004023751244Z" fill="#0c6e7a" stroke="#0c6e7a"/><path d="M570.7249694294296,47.971128524513915L632.1251592552289,143.45004023751244L631.1474860762246,68.38229748653248Z" fill="#0f6e7a" stroke="#0f6e7a"/><path d="M631.1474860762246,68.38229748653248L632.1251592552289,143.45004023751244L731.2709635263309,138.9592709869612Z" fill="#0b7583" stroke="#0b7583"/><path d="M631.1474860762246,68.38229748653248L731.2709635263309,138.9592709869612L724.4148563430645,57.230466175824404Z" fill="#0f7481" stroke="#0f7481"/><path d="M724.4148563430645,57.230466175824404L731.2709635263309,138.9592709869612L820.9618006995879,101.76495777908713Z" fill="#0d7a88" stroke="#0d7a88"/><path d="M724.4148563430645,57.230466175824404L820.9618006995879,101.76495777908713L811.0957820492331,25.750939827412367Z" fill="#127886" stroke="#127886"/><path d="M811.0957820492331,25.750939827412367L820.9618006995879,101.76495777908713L914.015745971119,56.88803378609009Z" fill="#127d8b" stroke="#127d8b"/><path d="M914.015745971119,56.88803378609009L820.9618006995879,101.76495777908713L896.582310324302,138.9492518955376Z" fill="#0d8392" stroke="#0d8392"/><path d="M914.015745971119,56.88803378609009L896.582310324302,138.9492518955376L970.6304830615409,113.49669644841924Z" fill="#0d8797" stroke="#0d8797"/><path d="M914.015745971119,56.88803378609009L970.6304830615409,113.49669644841924L999.7539329458959,15.30936930095777Z" fill="#128695" stroke="#128695"/><path d="M999.7539329458959,15.30936930095777L970.6304830615409,113.49669644841924L1043.2385942270048,100.1854273234494Z" fill="#108a9a" stroke="#108a9a"/><path d="M999.7539329458959,15.30936930095777L1043.2385942270048,100.1854273234494L1082.2678600787185,65.52237278898247Z" fill="#128c9b" stroke="#128c9b"/><path d="M1082.2678600787185,65.52237278898247L1043.2385942270048,100.1854273234494L1141.0663691023365,141.71562275034375Z" fill="#0d93a5" stroke="#0d93a5"/><path d="M1082.2678600787185,65.52237278898247L1141.0663691023365,141.71562275034375L1143.954991379287,54.893901952309534Z" fill="#0f94a5" stroke="#0f94a5"/><path d="M1143.954991379287,54.893901952309534L1141.0663691023365,141.71562275034375L1222.8859230934177,127.7983755688183Z" fill="#0c9aaa" stroke="#0c9aaa"/><path d="M1143.954991379287,54.893901952309534L1222.8859230934177,127.7983755688183L1221.0647908446845,39.66363821178675Z" fill="#1199a5" stroke="#1199a5"/><path d="M1221.0647908446845,39.66363821178675L1222.8859230934177,127.7983755688183L1298.6248351738323,47.87742969579995Z" fill="#119da5" stroke="#119da5"/><path d="M1298.6248351738323,47.87742969579995L1222.8859230934177,127.7983755688183L1321.522665360244,102.40060507203452Z" fill="#0ea1a8" stroke="#0ea1a8"/><path d="M1298.6248351738323,47.87742969579995L1321.522665360244,102.40060507203452L1428.2478814187925,69.03550248825923Z" fill="#11a3a5" stroke="#11a3a5"/><path d="M1428.2478814187925,69.03550248825923L1321.522665360244,102.40060507203452L1407.7818829170428,108.28688584966585Z" fill="#0ea5a8" stroke="#0ea5a8"/><path d="M1428.2478814187925,69.03550248825923L1407.7818829170428,108.28688584966585L1475.010077522602,144.36388466856442Z" fill="#0ca6a9" stroke="#0ca6a9"/><path d="M1428.2478814187925,69.03550248825923L1475.010077522602,144.36388466856442L1494.2375275993254,24.44996353238821Z" fill="#10a3a6" stroke="#10a3a6"/><path d="M1494.2375275993254,24.44996353238821L1475.010077522602,144.36388466856442L1488.8489981275052,221.4750912738964Z" fill="#09a8ac" stroke="#09a8ac"/><path d="M1494.2375275993254,24.44996353238821L1488.8489981275052,221.4750912738964L1510.4557702783495,374.89496969617903Z" fill="#00b0b6" stroke="#00b0b6"/><path d="M-29.841369007481262,102.64407065580599L-55.55808898177929,197.41680591949262L29.96664349338971,203.0793126334902Z" fill="#20474c" stroke="#20474c"/><path d="M-29.841369007481262,102.64407065580599L29.96664349338971,203.0793126334902L42.430232538608834,105.07126917946152Z" fill="#21474b" stroke="#21474b"/><path d="M42.430232538608834,105.07126917946152L29.96664349338971,203.0793126334902L143.60278755426407,117.54292142693885Z" fill="#1b4b51" stroke="#1b4b51"/><path d="M143.60278755426407,117.54292142693885L29.96664349338971,203.0793126334902L127.46212534140795,227.11689502350055Z" fill="#135159" stroke="#135159"/><path d="M143.60278755426407,117.54292142693885L127.46212534140795,227.11689502350055L219.94854453369044,200.1361277641263Z" fill="#0e555e" stroke="#0e555e"/><path d="M143.60278755426407,117.54292142693885L219.94854453369044,200.1361277641263L211.1821756104473,130.616663886467Z" fill="#0f545d" stroke="#0f545d"/><path d="M211.1821756104473,130.616663886467L219.94854453369044,200.1361277641263L319.81328627327457,140.97332783974707Z" fill="#095963" stroke="#095963"/><path d="M319.81328627327457,140.97332783974707L219.94854453369044,200.1361277641263L312.09430035203695,202.79369485680945Z" fill="#035e69" stroke="#035e69"/><path d="M319.81328627327457,140.97332783974707L312.09430035203695,202.79369485680945L401.0200198867824,206.788914547069Z" fill="#02636f" stroke="#02636f"/><path d="M319.81328627327457,140.97332783974707L401.0200198867824,206.788914547069L409.4857884454541,115.8775840816088Z" fill="#06636e" stroke="#06636e"/><path d="M409.4857884454541,115.8775840816088L401.0200198867824,206.788914547069L458.9582631213125,123.7878417770844Z" fill="#076672" stroke="#076672"/><path d="M458.9582631213125,123.7878417770844L401.0200198867824,206.788914547069L443.1987129349727,223.94927071989514Z" fill="#026a77" stroke="#026a77"/><path d="M458.9582631213125,123.7878417770844L443.1987129349727,223.94927071989514L529.3658807536121,130.92497121193446Z" fill="#066b78" stroke="#066b78"/><path d="M529.3658807536121,130.92497121193446L443.1987129349727,223.94927071989514L537.7167703921441,236.50590383913368Z" fill="#01717f" stroke="#01717f"/><path d="M529.3658807536121,130.92497121193446L537.7167703921441,236.50590383913368L612.3068362090271,210.79849997535348Z" fill="#017584" stroke="#017584"/><path d="M529.3658807536121,130.92497121193446L612.3068362090271,210.79849997535348L632.1251592552289,143.45004023751244Z" fill="#057482" stroke="#057482"/><path d="M632.1251592552289,143.45004023751244L612.3068362090271,210.79849997535348L698.1308736512437,192.90705399471335Z" fill="#037b8a" stroke="#037b8a"/><path d="M632.1251592552289,143.45004023751244L698.1308736512437,192.90705399471335L731.2709635263309,138.9592709869612Z" fill="#067b8a" stroke="#067b8a"/><path d="M731.2709635263309,138.9592709869612L698.1308736512437,192.90705399471335L824.846334947506,215.26558422716334Z" fill="#038292" stroke="#038292"/><path d="M731.2709635263309,138.9592709869612L824.846334947506,215.26558422716334L820.9618006995879,101.76495777908713Z" fill="#068292" stroke="#068292"/><path d="M820.9618006995879,101.76495777908713L824.846334947506,215.26558422716334L896.582310324302,138.9492518955376Z" fill="#068696" stroke="#068696"/><path d="M896.582310324302,138.9492518955376L824.846334947506,215.26558422716334L889.857111859601,204.7064977826085Z" fill="#028b9d" stroke="#028b9d"/><path d="M896.582310324302,138.9492518955376L889.857111859601,204.7064977826085L960.3891871415544,221.3204643386416Z" fill="#028fa1" stroke="#028fa1"/><path d="M896.582310324302,138.9492518955376L960.3891871415544,221.3204643386416L970.6304830615409,113.49669644841924Z" fill="#068e9f" stroke="#068e9f"/><path d="M970.6304830615409,113.49669644841924L960.3891871415544,221.3204643386416L1089.5245885453187,190.0051807402633Z" fill="#0494a7" stroke="#0494a7"/><path d="M970.6304830615409,113.49669644841924L1089.5245885453187,190.0051807402633L1043.2385942270048,100.1854273234494Z" fill="#0992a4" stroke="#0992a4"/><path d="M1043.2385942270048,100.1854273234494L1089.5245885453187,190.0051807402633L1141.0663691023365,141.71562275034375Z" fill="#0898aa" stroke="#0898aa"/><path d="M1141.0663691023365,141.71562275034375L1089.5245885453187,190.0051807402633L1169.6675192075782,205.82365731243044Z" fill="#039eb2" stroke="#039eb2"/><path d="M1141.0663691023365,141.71562275034375L1169.6675192075782,205.82365731243044L1222.8859230934177,127.7983755688183Z" fill="#06a0b0" stroke="#06a0b0"/><path d="M1222.8859230934177,127.7983755688183L1169.6675192075782,205.82365731243044L1228.6073020123877,192.79400531435385Z" fill="#03a3b2" stroke="#03a3b2"/><path d="M1222.8859230934177,127.7983755688183L1228.6073020123877,192.79400531435385L1320.6238893407863,202.70379767753184Z" fill="#04a7b2" stroke="#04a7b2"/><path d="M1222.8859230934177,127.7983755688183L1320.6238893407863,202.70379767753184L1321.522665360244,102.40060507203452Z" fill="#07a7ae" stroke="#07a7ae"/><path d="M1321.522665360244,102.40060507203452L1320.6238893407863,202.70379767753184L1407.7818829170428,108.28688584966585Z" fill="#08a9ad" stroke="#08a9ad"/><path d="M1407.7818829170428,108.28688584966585L1320.6238893407863,202.70379767753184L1426.94337603054,203.39445955236442Z" fill="#04acb2" stroke="#04acb2"/><path d="M1407.7818829170428,108.28688584966585L1426.94337603054,203.39445955236442L1475.010077522602,144.36388466856442Z" fill="#06abaf" stroke="#06abaf"/><path d="M1475.010077522602,144.36388466856442L1426.94337603054,203.39445955236442L1488.8489981275052,221.4750912738964Z" fill="#02aeb4" stroke="#02aeb4"/><path d="M-55.55808898177929,197.41680591949262L-67.02785229426809,462.88691025343724L-48.63086285069585,302.88144312566146Z" fill="#20555c" stroke="#20555c"/><path d="M-55.55808898177929,197.41680591949262L-48.63086285069585,302.88144312566146L29.96664349338971,203.0793126334902Z" fill="#1d4e54" stroke="#1d4e54"/><path d="M29.96664349338971,203.0793126334902L-48.63086285069585,302.88144312566146L38.478281159186736,284.51795098604634Z" fill="#1a535a" stroke="#1a535a"/><path d="M29.96664349338971,203.0793126334902L38.478281159186736,284.51795098604634L127.46212534140795,227.11689502350055Z" fill="#14555d" stroke="#14555d"/><path d="M127.46212534140795,227.11689502350055L38.478281159186736,284.51795098604634L127.10717402398586,314.28713082219474Z" fill="#115b64" stroke="#115b64"/><path d="M127.46212534140795,227.11689502350055L127.10717402398586,314.28713082219474L221.96610874845646,301.8308981950395Z" fill="#0c606b" stroke="#0c606b"/><path d="M127.46212534140795,227.11689502350055L221.96610874845646,301.8308981950395L219.94854453369044,200.1361277641263Z" fill="#095e69" stroke="#095e69"/><path d="M219.94854453369044,200.1361277641263L221.96610874845646,301.8308981950395L312.09430035203695,202.79369485680945Z" fill="#03616d" stroke="#03616d"/><path d="M312.09430035203695,202.79369485680945L221.96610874845646,301.8308981950395L293.0161227181088,319.8038696893491Z" fill="#016774" stroke="#016774"/><path d="M312.09430035203695,202.79369485680945L293.0161227181088,319.8038696893491L390.1662974024657,299.1253730165772Z" fill="#006c79" stroke="#006c79"/><path d="M312.09430035203695,202.79369485680945L390.1662974024657,299.1253730165772L401.0200198867824,206.788914547069Z" fill="#006a78" stroke="#006a78"/><path d="M401.0200198867824,206.788914547069L390.1662974024657,299.1253730165772L443.1987129349727,223.94927071989514Z" fill="#006f7d" stroke="#006f7d"/><path d="M443.1987129349727,223.94927071989514L390.1662974024657,299.1253730165772L466.4692847628612,323.5221173230093Z" fill="#007584" stroke="#007584"/><path d="M443.1987129349727,223.94927071989514L466.4692847628612,323.5221173230093L531.8957314314321,274.84619606868364Z" fill="#007887" stroke="#007887"/><path d="M443.1987129349727,223.94927071989514L531.8957314314321,274.84619606868364L537.7167703921441,236.50590383913368Z" fill="#007686" stroke="#007686"/><path d="M537.7167703921441,236.50590383913368L531.8957314314321,274.84619606868364L612.3068362090271,210.79849997535348Z" fill="#007a8a" stroke="#007a8a"/><path d="M612.3068362090271,210.79849997535348L531.8957314314321,274.84619606868364L663.014113631798,272.66756645054556Z" fill="#007f8f" stroke="#007f8f"/><path d="M612.3068362090271,210.79849997535348L663.014113631798,272.66756645054556L698.1308736512437,192.90705399471335Z" fill="#008090" stroke="#008090"/><path d="M698.1308736512437,192.90705399471335L663.014113631798,272.66756645054556L715.402788319625,297.51111302990466Z" fill="#008597" stroke="#008597"/><path d="M698.1308736512437,192.90705399471335L715.402788319625,297.51111302990466L824.846334947506,215.26558422716334Z" fill="#008799" stroke="#008799"/><path d="M824.846334947506,215.26558422716334L715.402788319625,297.51111302990466L792.5476069038268,315.91930201859213Z" fill="#008ea0" stroke="#008ea0"/><path d="M824.846334947506,215.26558422716334L792.5476069038268,315.91930201859213L915.0883804145269,285.2222619415261Z" fill="#0092a5" stroke="#0092a5"/><path d="M824.846334947506,215.26558422716334L915.0883804145269,285.2222619415261L889.857111859601,204.7064977826085Z" fill="#0091a3" stroke="#0091a3"/><path d="M889.857111859601,204.7064977826085L915.0883804145269,285.2222619415261L960.3891871415544,221.3204643386416Z" fill="#0094a7" stroke="#0094a7"/><path d="M960.3891871415544,221.3204643386416L915.0883804145269,285.2222619415261L980.8531580294948,296.31508770165965Z" fill="#009aae" stroke="#009aae"/><path d="M960.3891871415544,221.3204643386416L980.8531580294948,296.31508770165965L1089.5245885453187,190.0051807402633Z" fill="#009baf" stroke="#009baf"/><path d="M1089.5245885453187,190.0051807402633L980.8531580294948,296.31508770165965L1087.6418170775287,305.11021494166926Z" fill="#00a1b6" stroke="#00a1b6"/><path d="M1089.5245885453187,190.0051807402633L1087.6418170775287,305.11021494166926L1169.6675192075782,205.82365731243044Z" fill="#00a3b8" stroke="#00a3b8"/><path d="M1169.6675192075782,205.82365731243044L1087.6418170775287,305.11021494166926L1127.7861835504882,315.47817589133047Z" fill="#00a8be" stroke="#00a8be"/><path d="M1169.6675192075782,205.82365731243044L1127.7861835504882,315.47817589133047L1232.7221814333461,288.70294787338935Z" fill="#00acbe" stroke="#00acbe"/><path d="M1169.6675192075782,205.82365731243044L1232.7221814333461,288.70294787338935L1228.6073020123877,192.79400531435385Z" fill="#00aab9" stroke="#00aab9"/><path d="M1228.6073020123877,192.79400531435385L1232.7221814333461,288.70294787338935L1320.6238893407863,202.70379767753184Z" fill="#00adb9" stroke="#00adb9"/><path d="M1320.6238893407863,202.70379767753184L1232.7221814333461,288.70294787338935L1330.1552221830934,323.88272328535095Z" fill="#00b5be" stroke="#00b5be"/><path d="M1320.6238893407863,202.70379767753184L1330.1552221830934,323.88272328535095L1419.5603531820234,308.7436997075565Z" fill="#00b8bf" stroke="#00b8bf"/><path d="M1320.6238893407863,202.70379767753184L1419.5603531820234,308.7436997075565L1426.94337603054,203.39445955236442Z" fill="#00b4ba" stroke="#00b4ba"/><path d="M1426.94337603054,203.39445955236442L1419.5603531820234,308.7436997075565L1467.0977699570358,281.5352716029156Z" fill="#00b7bd" stroke="#00b7bd"/><path d="M1426.94337603054,203.39445955236442L1467.0977699570358,281.5352716029156L1488.8489981275052,221.4750912738964Z" fill="#00b3ba" stroke="#00b3ba"/><path d="M1488.8489981275052,221.4750912738964L1467.0977699570358,281.5352716029156L1510.4557702783495,374.89496969617903Z" fill="#00bac1" stroke="#00bac1"/><path d="M-48.63086285069585,302.88144312566146L-67.02785229426809,462.88691025343724L-44.15873898542486,372.8044810856227Z" fill="#1f5c64" stroke="#1f5c64"/><path d="M-48.63086285069585,302.88144312566146L-44.15873898542486,372.8044810856227L35.84681542124599,359.11190971848555Z" fill="#1c5b63" stroke="#1c5b63"/><path d="M-48.63086285069585,302.88144312566146L35.84681542124599,359.11190971848555L38.478281159186736,284.51795098604634Z" fill="#195961" stroke="#195961"/><path d="M38.478281159186736,284.51795098604634L35.84681542124599,359.11190971848555L127.10717402398586,314.28713082219474Z" fill="#145e67" stroke="#145e67"/><path d="M127.10717402398586,314.28713082219474L35.84681542124599,359.11190971848555L103.50554581382312,391.74480500398204Z" fill="#12636e" stroke="#12636e"/><path d="M127.10717402398586,314.28713082219474L103.50554581382312,391.74480500398204L226.93765507428907,371.1152960837353Z" fill="#0c6874" stroke="#0c6874"/><path d="M127.10717402398586,314.28713082219474L226.93765507428907,371.1152960837353L221.96610874845646,301.8308981950395Z" fill="#086874" stroke="#086874"/><path d="M221.96610874845646,301.8308981950395L226.93765507428907,371.1152960837353L293.0161227181088,319.8038696893491Z" fill="#036b79" stroke="#036b79"/><path d="M293.0161227181088,319.8038696893491L226.93765507428907,371.1152960837353L280.35235421266407,375.56608858401887Z" fill="#01707e" stroke="#01707e"/><path d="M293.0161227181088,319.8038696893491L280.35235421266407,375.56608858401887L389.70434424933046,356.55118818278424Z" fill="#007482" stroke="#007482"/><path d="M293.0161227181088,319.8038696893491L389.70434424933046,356.55118818278424L390.1662974024657,299.1253730165772Z" fill="#007382" stroke="#007382"/><path d="M390.1662974024657,299.1253730165772L389.70434424933046,356.55118818278424L466.4692847628612,323.5221173230093Z" fill="#007888" stroke="#007888"/><path d="M466.4692847628612,323.5221173230093L389.70434424933046,356.55118818278424L464.33331895037554,367.4651717382949Z" fill="#007d8d" stroke="#007d8d"/><path d="M466.4692847628612,323.5221173230093L464.33331895037554,367.4651717382949L552.1722537721507,384.8686938418541Z" fill="#008293" stroke="#008293"/><path d="M466.4692847628612,323.5221173230093L552.1722537721507,384.8686938418541L531.8957314314321,274.84619606868364Z" fill="#008191" stroke="#008191"/><path d="M531.8957314314321,274.84619606868364L552.1722537721507,384.8686938418541L636.3266630424187,386.7267235473264Z" fill="#008799" stroke="#008799"/><path d="M531.8957314314321,274.84619606868364L636.3266630424187,386.7267235473264L663.014113631798,272.66756645054556Z" fill="#008697" stroke="#008697"/><path d="M663.014113631798,272.66756645054556L636.3266630424187,386.7267235473264L715.402788319625,297.51111302990466Z" fill="#008b9d" stroke="#008b9d"/><path d="M715.402788319625,297.51111302990466L636.3266630424187,386.7267235473264L738.4712413302623,392.3313238355331Z" fill="#0092a4" stroke="#0092a4"/><path d="M715.402788319625,297.51111302990466L738.4712413302623,392.3313238355331L792.5476069038268,315.91930201859213Z" fill="#0092a5" stroke="#0092a5"/><path d="M792.5476069038268,315.91930201859213L738.4712413302623,392.3313238355331L827.4641760124359,374.3076977110468Z" fill="#0098ac" stroke="#0098ac"/><path d="M792.5476069038268,315.91930201859213L827.4641760124359,374.3076977110468L915.0883804145269,285.2222619415261Z" fill="#0098ac" stroke="#0098ac"/><path d="M915.0883804145269,285.2222619415261L827.4641760124359,374.3076977110468L912.4198404885828,381.511166858254Z" fill="#009eb2" stroke="#009eb2"/><path d="M915.0883804145269,285.2222619415261L912.4198404885828,381.511166858254L950.3891444311012,367.6414510514587Z" fill="#00a1b6" stroke="#00a1b6"/><path d="M915.0883804145269,285.2222619415261L950.3891444311012,367.6414510514587L980.8531580294948,296.31508770165965Z" fill="#009fb4" stroke="#009fb4"/><path d="M980.8531580294948,296.31508770165965L950.3891444311012,367.6414510514587L1085.9118379256688,389.88493886077777Z" fill="#00a7bd" stroke="#00a7bd"/><path d="M980.8531580294948,296.31508770165965L1085.9118379256688,389.88493886077777L1087.6418170775287,305.11021494166926Z" fill="#00a8be" stroke="#00a8be"/><path d="M1087.6418170775287,305.11021494166926L1085.9118379256688,389.88493886077777L1127.1044046466704,378.14202000852674Z" fill="#00afc6" stroke="#00afc6"/><path d="M1087.6418170775287,305.11021494166926L1127.1044046466704,378.14202000852674L1127.7861835504882,315.47817589133047Z" fill="#00aec4" stroke="#00aec4"/><path d="M1127.7861835504882,315.47817589133047L1127.1044046466704,378.14202000852674L1238.2062387187034,373.73839950421825Z" fill="#00b4c9" stroke="#00b4c9"/><path d="M1127.7861835504882,315.47817589133047L1238.2062387187034,373.73839950421825L1232.7221814333461,288.70294787338935Z" fill="#00b3c5" stroke="#00b3c5"/><path d="M1232.7221814333461,288.70294787338935L1238.2062387187034,373.73839950421825L1330.1552221830934,323.88272328535095Z" fill="#00b9c6" stroke="#00b9c6"/><path d="M1330.1552221830934,323.88272328535095L1238.2062387187034,373.73839950421825L1315.7670611084905,400.3059247857891Z" fill="#00bfca" stroke="#00bfca"/><path d="M1330.1552221830934,323.88272328535095L1315.7670611084905,400.3059247857891L1383.6612147686537,393.05114884045906Z" fill="#00c3cb" stroke="#00c3cb"/><path d="M1330.1552221830934,323.88272328535095L1383.6612147686537,393.05114884045906L1419.5603531820234,308.7436997075565Z" fill="#00bfc7" stroke="#00bfc7"/><path d="M1419.5603531820234,308.7436997075565L1383.6612147686537,393.05114884045906L1510.4557702783495,374.89496969617903Z" fill="#00c1ca" stroke="#00c1ca"/><path d="M1419.5603531820234,308.7436997075565L1510.4557702783495,374.89496969617903L1467.0977699570358,281.5352716029156Z" fill="#00bdc5" stroke="#00bdc5"/><path d="M-44.15873898542486,372.8044810856227L-67.02785229426809,462.88691025343724L60.11888444540091,453.4186017571483Z" fill="#1c646d" stroke="#1c646d"/><path d="M-44.15873898542486,372.8044810856227L60.11888444540091,453.4186017571483L35.84681542124599,359.11190971848555Z" fill="#19636c" stroke="#19636c"/><path d="M35.84681542124599,359.11190971848555L60.11888444540091,453.4186017571483L103.50554581382312,391.74480500398204Z" fill="#146771" stroke="#146771"/><path d="M103.50554581382312,391.74480500398204L60.11888444540091,453.4186017571483L118.88260871986859,457.92352412012406Z" fill="#126c78" stroke="#126c78"/><path d="M103.50554581382312,391.74480500398204L118.88260871986859,457.92352412012406L226.93765507428907,371.1152960837353Z" fill="#0c6d7a" stroke="#0c6d7a"/><path d="M226.93765507428907,371.1152960837353L118.88260871986859,457.92352412012406L236.52071561198682,444.79407171718776Z" fill="#087280" stroke="#087280"/><path d="M226.93765507428907,371.1152960837353L236.52071561198682,444.79407171718776L280.35235421266407,375.56608858401887Z" fill="#037381" stroke="#037381"/><path d="M280.35235421266407,375.56608858401887L236.52071561198682,444.79407171718776L319.6674938907381,445.4291457508225Z" fill="#007887" stroke="#007887"/><path d="M280.35235421266407,375.56608858401887L319.6674938907381,445.4291457508225L389.70434424933046,356.55118818278424Z" fill="#007988" stroke="#007988"/><path d="M389.70434424933046,356.55118818278424L319.6674938907381,445.4291457508225L407.9811138671357,449.75314942887053Z" fill="#007f8f" stroke="#007f8f"/><path d="M389.70434424933046,356.55118818278424L407.9811138671357,449.75314942887053L464.33331895037554,367.4651717382949Z" fill="#008091" stroke="#008091"/><path d="M464.33331895037554,367.4651717382949L407.9811138671357,449.75314942887053L466.43177666701376,473.36782989790663Z" fill="#008697" stroke="#008697"/><path d="M464.33331895037554,367.4651717382949L466.43177666701376,473.36782989790663L552.1722537721507,384.8686938418541Z" fill="#008899" stroke="#008899"/><path d="M552.1722537721507,384.8686938418541L466.43177666701376,473.36782989790663L574.0351007017307,455.90610243263654Z" fill="#008ea0" stroke="#008ea0"/><path d="M552.1722537721507,384.8686938418541L574.0351007017307,455.90610243263654L636.3266630424187,386.7267235473264Z" fill="#008fa2" stroke="#008fa2"/><path d="M636.3266630424187,386.7267235473264L574.0351007017307,455.90610243263654L653.8386608392466,479.7867508919444Z" fill="#0095a8" stroke="#0095a8"/><path d="M636.3266630424187,386.7267235473264L653.8386608392466,479.7867508919444L738.4712413302623,392.3313238355331Z" fill="#0097aa" stroke="#0097aa"/><path d="M738.4712413302623,392.3313238355331L653.8386608392466,479.7867508919444L733.6892136675306,493.9714687340893Z" fill="#009cb1" stroke="#009cb1"/><path d="M738.4712413302623,392.3313238355331L733.6892136675306,493.9714687340893L799.6950451075099,463.81268324446864Z" fill="#009fb4" stroke="#009fb4"/><path d="M738.4712413302623,392.3313238355331L799.6950451075099,463.81268324446864L827.4641760124359,374.3076977110468Z" fill="#009eb2" stroke="#009eb2"/><path d="M827.4641760124359,374.3076977110468L799.6950451075099,463.81268324446864L889.631144386949,457.70811795722693Z" fill="#00a3b9" stroke="#00a3b9"/><path d="M827.4641760124359,374.3076977110468L889.631144386949,457.70811795722693L912.4198404885828,381.511166858254Z" fill="#00a4b9" stroke="#00a4b9"/><path d="M912.4198404885828,381.511166858254L889.631144386949,457.70811795722693L966.9485405960586,491.5612825250719Z" fill="#00abc1" stroke="#00abc1"/><path d="M912.4198404885828,381.511166858254L966.9485405960586,491.5612825250719L950.3891444311012,367.6414510514587Z" fill="#00aac0" stroke="#00aac0"/><path d="M950.3891444311012,367.6414510514587L966.9485405960586,491.5612825250719L1060.6169813184533,444.4365281960927Z" fill="#00afc6" stroke="#00afc6"/><path d="M950.3891444311012,367.6414510514587L1060.6169813184533,444.4365281960927L1085.9118379256688,389.88493886077777Z" fill="#00afc6" stroke="#00afc6"/><path d="M1085.9118379256688,389.88493886077777L1060.6169813184533,444.4365281960927L1174.6016737772152,471.96322732022963Z" fill="#00b8d0" stroke="#00b8d0"/><path d="M1085.9118379256688,389.88493886077777L1174.6016737772152,471.96322732022963L1127.1044046466704,378.14202000852674Z" fill="#00b8d0" stroke="#00b8d0"/><path d="M1127.1044046466704,378.14202000852674L1174.6016737772152,471.96322732022963L1238.2062387187034,373.73839950421825Z" fill="#00bbd0" stroke="#00bbd0"/><path d="M1238.2062387187034,373.73839950421825L1174.6016737772152,471.96322732022963L1235.912579022115,459.79014613316394Z" fill="#00c1d3" stroke="#00c1d3"/><path d="M1238.2062387187034,373.73839950421825L1235.912579022115,459.79014613316394L1315.7670611084905,400.3059247857891Z" fill="#00c2d0" stroke="#00c2d0"/><path d="M1315.7670611084905,400.3059247857891L1235.912579022115,459.79014613316394L1295.6090593046974,466.407990695443Z" fill="#00c6d4" stroke="#00c6d4"/><path d="M1315.7670611084905,400.3059247857891L1295.6090593046974,466.407990695443L1402.487482993165,464.8336166155059Z" fill="#00cad4" stroke="#00cad4"/><path d="M1315.7670611084905,400.3059247857891L1402.487482993165,464.8336166155059L1383.6612147686537,393.05114884045906Z" fill="#00c8d1" stroke="#00c8d1"/><path d="M1383.6612147686537,393.05114884045906L1402.487482993165,464.8336166155059L1489.5429962035269,455.573460488813Z" fill="#00cad3" stroke="#00cad3"/><path d="M1383.6612147686537,393.05114884045906L1489.5429962035269,455.573460488813L1510.4557702783495,374.89496969617903Z" fill="#00c7d0" stroke="#00c7d0"/><path d="M1510.4557702783495,374.89496969617903L1489.5429962035269,455.573460488813L1513.806755093392,651.5965546423104Z" fill="#00cfda" stroke="#00cfda"/><path d="M-67.02785229426809,462.88691025343724L-69.71536753117107,558.013284956105L20.243509605061263,578.8987424678635Z" fill="#1e6d77" stroke="#1e6d77"/><path d="M-67.02785229426809,462.88691025343724L20.243509605061263,578.8987424678635L60.11888444540091,453.4186017571483Z" fill="#1a6d77" stroke="#1a6d77"/><path d="M60.11888444540091,453.4186017571483L20.243509605061263,578.8987424678635L151.19695309200324,560.3940610389691Z" fill="#137581" stroke="#137581"/><path d="M60.11888444540091,453.4186017571483L151.19695309200324,560.3940610389691L118.88260871986859,457.92352412012406Z" fill="#107380" stroke="#107380"/><path d="M118.88260871986859,457.92352412012406L151.19695309200324,560.3940610389691L205.71860962430947,552.7138868451584Z" fill="#0c7a88" stroke="#0c7a88"/><path d="M118.88260871986859,457.92352412012406L205.71860962430947,552.7138868451584L236.52071561198682,444.79407171718776Z" fill="#097886" stroke="#097886"/><path d="M236.52071561198682,444.79407171718776L205.71860962430947,552.7138868451584L293.4463103057351,560.3359038266353Z" fill="#037f8f" stroke="#037f8f"/><path d="M236.52071561198682,444.79407171718776L293.4463103057351,560.3359038266353L319.6674938907381,445.4291457508225Z" fill="#007f8f" stroke="#007f8f"/><path d="M319.6674938907381,445.4291457508225L293.4463103057351,560.3359038266353L394.508805423975,545.3299397719093Z" fill="#008697" stroke="#008697"/><path d="M319.6674938907381,445.4291457508225L394.508805423975,545.3299397719093L407.9811138671357,449.75314942887053Z" fill="#008596" stroke="#008596"/><path d="M407.9811138671357,449.75314942887053L394.508805423975,545.3299397719093L466.43177666701376,473.36782989790663Z" fill="#008a9c" stroke="#008a9c"/><path d="M466.43177666701376,473.36782989790663L394.508805423975,545.3299397719093L463.6116640770342,554.3335823586676Z" fill="#008fa2" stroke="#008fa2"/><path d="M466.43177666701376,473.36782989790663L463.6116640770342,554.3335823586676L556.4041519945022,565.5495029874146Z" fill="#0094a7" stroke="#0094a7"/><path d="M466.43177666701376,473.36782989790663L556.4041519945022,565.5495029874146L574.0351007017307,455.90610243263654Z" fill="#0094a7" stroke="#0094a7"/><path d="M574.0351007017307,455.90610243263654L556.4041519945022,565.5495029874146L615.021062172018,532.142306069145Z" fill="#009aae" stroke="#009aae"/><path d="M574.0351007017307,455.90610243263654L615.021062172018,532.142306069145L653.8386608392466,479.7867508919444Z" fill="#0099ad" stroke="#0099ad"/><path d="M653.8386608392466,479.7867508919444L615.021062172018,532.142306069145L739.9046380806249,568.1891786167398Z" fill="#00a1b6" stroke="#00a1b6"/><path d="M653.8386608392466,479.7867508919444L739.9046380806249,568.1891786167398L733.6892136675306,493.9714687340893Z" fill="#00a2b8" stroke="#00a2b8"/><path d="M733.6892136675306,493.9714687340893L739.9046380806249,568.1891786167398L783.3409126184415,576.5840939839836Z" fill="#00a8bf" stroke="#00a8bf"/><path d="M733.6892136675306,493.9714687340893L783.3409126184415,576.5840939839836L799.6950451075099,463.81268324446864Z" fill="#00a6bd" stroke="#00a6bd"/><path d="M799.6950451075099,463.81268324446864L783.3409126184415,576.5840939839836L915.8762500039302,531.6596781881526Z" fill="#00acc3" stroke="#00acc3"/><path d="M799.6950451075099,463.81268324446864L915.8762500039302,531.6596781881526L889.631144386949,457.70811795722693Z" fill="#00abc1" stroke="#00abc1"/><path d="M889.631144386949,457.70811795722693L915.8762500039302,531.6596781881526L966.9485405960586,491.5612825250719Z" fill="#00b0c7" stroke="#00b0c7"/><path d="M966.9485405960586,491.5612825250719L915.8762500039302,531.6596781881526L989.8854912293609,547.8900127636734Z" fill="#00b6cd" stroke="#00b6cd"/><path d="M966.9485405960586,491.5612825250719L989.8854912293609,547.8900127636734L1060.6169813184533,444.4365281960927Z" fill="#00b6ce" stroke="#00b6ce"/><path d="M1060.6169813184533,444.4365281960927L989.8854912293609,547.8900127636734L1081.4173389424104,557.1473246067762Z" fill="#00bbd4" stroke="#00bbd4"/><path d="M1060.6169813184533,444.4365281960927L1081.4173389424104,557.1473246067762L1174.6016737772152,471.96322732022963Z" fill="#00bed7" stroke="#00bed7"/><path d="M1174.6016737772152,471.96322732022963L1081.4173389424104,557.1473246067762L1152.064033265924,574.8896386357956Z" fill="#00c4de" stroke="#00c4de"/><path d="M1174.6016737772152,471.96322732022963L1152.064033265924,574.8896386357956L1211.8906380212866,546.8213661387563Z" fill="#00c7de" stroke="#00c7de"/><path d="M1174.6016737772152,471.96322732022963L1211.8906380212866,546.8213661387563L1235.912579022115,459.79014613316394Z" fill="#00c6d9" stroke="#00c6d9"/><path d="M1235.912579022115,459.79014613316394L1211.8906380212866,546.8213661387563L1295.6090593046974,466.407990695443Z" fill="#00c9d9" stroke="#00c9d9"/><path d="M1295.6090593046974,466.407990695443L1211.8906380212866,546.8213661387563L1330.3660590213258,578.9152433234267Z" fill="#00cfde" stroke="#00cfde"/><path d="M1295.6090593046974,466.407990695443L1330.3660590213258,578.9152433234267L1412.6959234685637,536.2367039103992Z" fill="#00d2dd" stroke="#00d2dd"/><path d="M1295.6090593046974,466.407990695443L1412.6959234685637,536.2367039103992L1402.487482993165,464.8336166155059Z" fill="#00cfd9" stroke="#00cfd9"/><path d="M1402.487482993165,464.8336166155059L1412.6959234685637,536.2367039103992L1480.0022407970391,539.6217592374887Z" fill="#00d1dc" stroke="#00d1dc"/><path d="M1402.487482993165,464.8336166155059L1480.0022407970391,539.6217592374887L1489.5429962035269,455.573460488813Z" fill="#00ced9" stroke="#00ced9"/><path d="M1489.5429962035269,455.573460488813L1480.0022407970391,539.6217592374887L1513.806755093392,651.5965546423104Z" fill="#00d5e0" stroke="#00d5e0"/><path d="M-69.71536753117107,558.013284956105L-61.9476839445997,1047.6093499001581L-63.81614094832912,897.7900644566398Z" fill="#208b96" stroke="#208b96"/><path d="M-69.71536753117107,558.013284956105L-63.81614094832912,897.7900644566398L-28.862811570288613,797.0980385725852Z" fill="#1f828f" stroke="#1f828f"/><path d="M-69.71536753117107,558.013284956105L-28.862811570288613,797.0980385725852L-20.598894868744537,744.3969154823571Z" fill="#1e7e8b" stroke="#1e7e8b"/><path d="M-69.71536753117107,558.013284956105L-20.598894868744537,744.3969154823571L-27.61910105822608,631.9919413642492Z" fill="#1e7984" stroke="#1e7984"/><path d="M-69.71536753117107,558.013284956105L-27.61910105822608,631.9919413642492L20.243509605061263,578.8987424678635Z" fill="#1d737f" stroke="#1d737f"/><path d="M20.243509605061263,578.8987424678635L-27.61910105822608,631.9919413642492L43.32967989612371,614.9203593761194Z" fill="#197884" stroke="#197884"/><path d="M20.243509605061263,578.8987424678635L43.32967989612371,614.9203593761194L151.19695309200324,560.3940610389691Z" fill="#147a87" stroke="#147a87"/><path d="M151.19695309200324,560.3940610389691L43.32967989612371,614.9203593761194L133.49739080527797,610.0105226109736Z" fill="#107d8c" stroke="#107d8c"/><path d="M151.19695309200324,560.3940610389691L133.49739080527797,610.0105226109736L213.36424821638502,632.5392491358798Z" fill="#0b8291" stroke="#0b8291"/><path d="M151.19695309200324,560.3940610389691L213.36424821638502,632.5392491358798L205.71860962430947,552.7138868451584Z" fill="#098192" stroke="#098192"/><path d="M205.71860962430947,552.7138868451584L213.36424821638502,632.5392491358798L293.4463103057351,560.3359038266353Z" fill="#048596" stroke="#048596"/><path d="M293.4463103057351,560.3359038266353L213.36424821638502,632.5392491358798L283.0446092307102,658.0376855225768Z" fill="#028b9c" stroke="#028b9c"/><path d="M293.4463103057351,560.3359038266353L283.0446092307102,658.0376855225768L391.55411567073315,648.2380461669527Z" fill="#0090a2" stroke="#0090a2"/><path d="M293.4463103057351,560.3359038266353L391.55411567073315,648.2380461669527L394.508805423975,545.3299397719093Z" fill="#008fa1" stroke="#008fa1"/><path d="M394.508805423975,545.3299397719093L391.55411567073315,648.2380461669527L453.00794864073396,647.661344135413Z" fill="#0096a9" stroke="#0096a9"/><path d="M394.508805423975,545.3299397719093L453.00794864073396,647.661344135413L463.6116640770342,554.3335823586676Z" fill="#0094a8" stroke="#0094a8"/><path d="M463.6116640770342,554.3335823586676L453.00794864073396,647.661344135413L540.7474977185484,612.2935042483732Z" fill="#009baf" stroke="#009baf"/><path d="M463.6116640770342,554.3335823586676L540.7474977185484,612.2935042483732L556.4041519945022,565.5495029874146Z" fill="#009baf" stroke="#009baf"/><path d="M556.4041519945022,565.5495029874146L540.7474977185484,612.2935042483732L655.4631528118625,635.1546783011872Z" fill="#00a2b8" stroke="#00a2b8"/><path d="M556.4041519945022,565.5495029874146L655.4631528118625,635.1546783011872L615.021062172018,532.142306069145Z" fill="#00a2b7" stroke="#00a2b7"/><path d="M615.021062172018,532.142306069145L655.4631528118625,635.1546783011872L739.9046380806249,568.1891786167398Z" fill="#00a6bc" stroke="#00a6bc"/><path d="M739.9046380806249,568.1891786167398L655.4631528118625,635.1546783011872L717.9797355551273,643.1887754646596Z" fill="#00acc3" stroke="#00acc3"/><path d="M739.9046380806249,568.1891786167398L717.9797355551273,643.1887754646596L783.3409126184415,576.5840939839836Z" fill="#00adc4" stroke="#00adc4"/><path d="M783.3409126184415,576.5840939839836L717.9797355551273,643.1887754646596L806.6507053025998,637.4184829893056Z" fill="#00b1c9" stroke="#00b1c9"/><path d="M783.3409126184415,576.5840939839836L806.6507053025998,637.4184829893056L882.0700155326631,632.8884785529226Z" fill="#00b5cd" stroke="#00b5cd"/><path d="M783.3409126184415,576.5840939839836L882.0700155326631,632.8884785529226L915.8762500039302,531.6596781881526Z" fill="#00b4cc" stroke="#00b4cc"/><path d="M915.8762500039302,531.6596781881526L882.0700155326631,632.8884785529226L974.7211074898951,618.3288095891476Z" fill="#00bad3" stroke="#00bad3"/><path d="M915.8762500039302,531.6596781881526L974.7211074898951,618.3288095891476L989.8854912293609,547.8900127636734Z" fill="#00bad3" stroke="#00bad3"/><path d="M989.8854912293609,547.8900127636734L974.7211074898951,618.3288095891476L1044.5283481443767,639.1185393522028Z" fill="#00c1da" stroke="#00c1da"/><path d="M989.8854912293609,547.8900127636734L1044.5283481443767,639.1185393522028L1081.4173389424104,557.1473246067762Z" fill="#00c2db" stroke="#00c2db"/><path d="M1081.4173389424104,557.1473246067762L1044.5283481443767,639.1185393522028L1126.637934569735,630.1012864348013Z" fill="#00c8e2" stroke="#00c8e2"/><path d="M1081.4173389424104,557.1473246067762L1126.637934569735,630.1012864348013L1152.064033265924,574.8896386357956Z" fill="#00c8e3" stroke="#00c8e3"/><path d="M1152.064033265924,574.8896386357956L1126.637934569735,630.1012864348013L1212.906407294795,644.2430074210279Z" fill="#00cfe8" stroke="#00cfe8"/><path d="M1152.064033265924,574.8896386357956L1212.906407294795,644.2430074210279L1211.8906380212866,546.8213661387563Z" fill="#00cee4" stroke="#00cee4"/><path d="M1211.8906380212866,546.8213661387563L1212.906407294795,644.2430074210279L1323.6000002524815,619.0944141638465Z" fill="#00d4e6" stroke="#00d4e6"/><path d="M1211.8906380212866,546.8213661387563L1323.6000002524815,619.0944141638465L1330.3660590213258,578.9152433234267Z" fill="#00d5e4" stroke="#00d5e4"/><path d="M1330.3660590213258,578.9152433234267L1323.6000002524815,619.0944141638465L1402.808305801591,658.0950510874391Z" fill="#00dce8" stroke="#00dce8"/><path d="M1330.3660590213258,578.9152433234267L1402.808305801591,658.0950510874391L1412.6959234685637,536.2367039103992Z" fill="#00d9e5" stroke="#00d9e5"/><path d="M1412.6959234685637,536.2367039103992L1402.808305801591,658.0950510874391L1480.0022407970391,539.6217592374887Z" fill="#00d8e3" stroke="#00d8e3"/><path d="M1480.0022407970391,539.6217592374887L1402.808305801591,658.0950510874391L1513.806755093392,651.5965546423104Z" fill="#00dce8" stroke="#00dce8"/><path d="M-27.61910105822608,631.9919413642492L-20.598894868744537,744.3969154823571L44.896415090188384,738.5883844236378Z" fill="#1a828f" stroke="#1a828f"/><path d="M-27.61910105822608,631.9919413642492L44.896415090188384,738.5883844236378L43.32967989612371,614.9203593761194Z" fill="#187e8c" stroke="#187e8c"/><path d="M43.32967989612371,614.9203593761194L44.896415090188384,738.5883844236378L138.76441123895347,700.2093601715751Z" fill="#138593" stroke="#138593"/><path d="M43.32967989612371,614.9203593761194L138.76441123895347,700.2093601715751L133.49739080527797,610.0105226109736Z" fill="#108291" stroke="#108291"/><path d="M133.49739080527797,610.0105226109736L138.76441123895347,700.2093601715751L213.36424821638502,632.5392491358798Z" fill="#0b8796" stroke="#0b8796"/><path d="M213.36424821638502,632.5392491358798L138.76441123895347,700.2093601715751L232.09010681835935,740.802397725638Z" fill="#088e9f" stroke="#088e9f"/><path d="M213.36424821638502,632.5392491358798L232.09010681835935,740.802397725638L283.0446092307102,658.0376855225768Z" fill="#0490a2" stroke="#0490a2"/><path d="M283.0446092307102,658.0376855225768L232.09010681835935,740.802397725638L288.11118232202716,708.8017903536092Z" fill="#0194a7" stroke="#0194a7"/><path d="M283.0446092307102,658.0376855225768L288.11118232202716,708.8017903536092L391.55411567073315,648.2380461669527Z" fill="#0095a8" stroke="#0095a8"/><path d="M391.55411567073315,648.2380461669527L288.11118232202716,708.8017903536092L374.2544256884139,741.5736185153946Z" fill="#009aae" stroke="#009aae"/><path d="M391.55411567073315,648.2380461669527L374.2544256884139,741.5736185153946L463.5018229391426,702.7243805339094Z" fill="#009fb3" stroke="#009fb3"/><path d="M391.55411567073315,648.2380461669527L463.5018229391426,702.7243805339094L453.00794864073396,647.661344135413Z" fill="#009db2" stroke="#009db2"/><path d="M453.00794864073396,647.661344135413L463.5018229391426,702.7243805339094L540.7474977185484,612.2935042483732Z" fill="#00a0b5" stroke="#00a0b5"/><path d="M540.7474977185484,612.2935042483732L463.5018229391426,702.7243805339094L547.7634763671085,742.1531864593271Z" fill="#00a6bc" stroke="#00a6bc"/><path d="M540.7474977185484,612.2935042483732L547.7634763671085,742.1531864593271L616.1804128368385,722.3843393439893Z" fill="#00abc1" stroke="#00abc1"/><path d="M540.7474977185484,612.2935042483732L616.1804128368385,722.3843393439893L655.4631528118625,635.1546783011872Z" fill="#00a9c0" stroke="#00a9c0"/><path d="M655.4631528118625,635.1546783011872L616.1804128368385,722.3843393439893L697.9501987225376,706.2569964141585Z" fill="#00b1c8" stroke="#00b1c8"/><path d="M655.4631528118625,635.1546783011872L697.9501987225376,706.2569964141585L717.9797355551273,643.1887754646596Z" fill="#00b0c7" stroke="#00b0c7"/><path d="M717.9797355551273,643.1887754646596L697.9501987225376,706.2569964141585L828.3612175530288,710.4862434626557Z" fill="#00b7cf" stroke="#00b7cf"/><path d="M717.9797355551273,643.1887754646596L828.3612175530288,710.4862434626557L806.6507053025998,637.4184829893056Z" fill="#00b7cf" stroke="#00b7cf"/><path d="M806.6507053025998,637.4184829893056L828.3612175530288,710.4862434626557L870.6592188542709,705.3261485428084Z" fill="#00bdd6" stroke="#00bdd6"/><path d="M806.6507053025998,637.4184829893056L870.6592188542709,705.3261485428084L882.0700155326631,632.8884785529226Z" fill="#00bcd4" stroke="#00bcd4"/><path d="M882.0700155326631,632.8884785529226L870.6592188542709,705.3261485428084L987.2560831729788,728.0441435461398Z" fill="#00c3dd" stroke="#00c3dd"/><path d="M882.0700155326631,632.8884785529226L987.2560831729788,728.0441435461398L974.7211074898951,618.3288095891476Z" fill="#00c3dd" stroke="#00c3dd"/><path d="M974.7211074898951,618.3288095891476L987.2560831729788,728.0441435461398L1044.5283481443767,639.1185393522028Z" fill="#00c7e2" stroke="#00c7e2"/><path d="M1044.5283481443767,639.1185393522028L987.2560831729788,728.0441435461398L1067.9580440721475,742.2467054449953Z" fill="#00cee9" stroke="#00cee9"/><path d="M1044.5283481443767,639.1185393522028L1067.9580440721475,742.2467054449953L1126.2427321914583,702.2233555058483Z" fill="#00d1ec" stroke="#00d1ec"/><path d="M1044.5283481443767,639.1185393522028L1126.2427321914583,702.2233555058483L1126.637934569735,630.1012864348013Z" fill="#00cee9" stroke="#00cee9"/><path d="M1126.637934569735,630.1012864348013L1126.2427321914583,702.2233555058483L1212.906407294795,644.2430074210279Z" fill="#00d3ed" stroke="#00d3ed"/><path d="M1212.906407294795,644.2430074210279L1126.2427321914583,702.2233555058483L1252.7704215457197,748.3016591507476Z" fill="#00daf2" stroke="#00daf2"/><path d="M1212.906407294795,644.2430074210279L1252.7704215457197,748.3016591507476L1323.6000002524815,619.0944141638465Z" fill="#00dcee" stroke="#00dcee"/><path d="M1323.6000002524815,619.0944141638465L1252.7704215457197,748.3016591507476L1339.6474257553928,746.2422129558399Z" fill="#00e3f2" stroke="#00e3f2"/><path d="M1323.6000002524815,619.0944141638465L1339.6474257553928,746.2422129558399L1402.808305801591,658.0950510874391Z" fill="#00e2ef" stroke="#00e2ef"/><path d="M1402.808305801591,658.0950510874391L1339.6474257553928,746.2422129558399L1412.315956155071,743.5957783192862Z" fill="#00e6f4" stroke="#00e6f4"/><path d="M1402.808305801591,658.0950510874391L1412.315956155071,743.5957783192862L1471.3039883750025,734.8658835480455Z" fill="#00e6f3" stroke="#00e6f3"/><path d="M1402.808305801591,658.0950510874391L1471.3039883750025,734.8658835480455L1513.806755093392,651.5965546423104Z" fill="#00e3f0" stroke="#00e3f0"/><path d="M1513.806755093392,651.5965546423104L1471.3039883750025,734.8658835480455L1486.047196809668,823.7976055429317Z" fill="#00e8f6" stroke="#00e8f6"/><path d="M1513.806755093392,651.5965546423104L1486.047196809668,823.7976055429317L1498.919310051715,878.6670420167502Z" fill="#00eefc" stroke="#00eefc"/><path d="M1513.806755093392,651.5965546423104L1498.919310051715,878.6670420167502L1498.9806824515108,988.1114088871982Z" fill="#00f3ff" stroke="#00f3ff"/><path d="M-20.598894868744537,744.3969154823571L-28.862811570288613,797.0980385725852L44.896415090188384,738.5883844236378Z" fill="#1a8795" stroke="#1a8795"/><path d="M44.896415090188384,738.5883844236378L-28.862811570288613,797.0980385725852L52.77934622135945,814.1676303138956Z" fill="#188b9a" stroke="#188b9a"/><path d="M44.896415090188384,738.5883844236378L52.77934622135945,814.1676303138956L136.75140744890086,788.1695990124717Z" fill="#138f9f" stroke="#138f9f"/><path d="M44.896415090188384,738.5883844236378L136.75140744890086,788.1695990124717L138.76441123895347,700.2093601715751Z" fill="#108d9d" stroke="#108d9d"/><path d="M138.76441123895347,700.2093601715751L136.75140744890086,788.1695990124717L232.09010681835935,740.802397725638Z" fill="#0b92a3" stroke="#0b92a3"/><path d="M232.09010681835935,740.802397725638L136.75140744890086,788.1695990124717L199.17365143774077,825.0250940816477Z" fill="#0997a9" stroke="#0997a9"/><path d="M232.09010681835935,740.802397725638L199.17365143774077,825.0250940816477L323.4340013121255,831.8615858617704Z" fill="#039db1" stroke="#039db1"/><path d="M232.09010681835935,740.802397725638L323.4340013121255,831.8615858617704L288.11118232202716,708.8017903536092Z" fill="#009baf" stroke="#009baf"/><path d="M288.11118232202716,708.8017903536092L323.4340013121255,831.8615858617704L374.2544256884139,741.5736185153946Z" fill="#009fb4" stroke="#009fb4"/><path d="M374.2544256884139,741.5736185153946L323.4340013121255,831.8615858617704L380.83177408901975,805.3604745911434Z" fill="#00a5ba" stroke="#00a5ba"/><path d="M374.2544256884139,741.5736185153946L380.83177408901975,805.3604745911434L474.6577321179211,804.110459635267Z" fill="#00a8be" stroke="#00a8be"/><path d="M374.2544256884139,741.5736185153946L474.6577321179211,804.110459635267L463.5018229391426,702.7243805339094Z" fill="#00a6bc" stroke="#00a6bc"/><path d="M463.5018229391426,702.7243805339094L474.6577321179211,804.110459635267L547.7634763671085,742.1531864593271Z" fill="#00abc1" stroke="#00abc1"/><path d="M547.7634763671085,742.1531864593271L474.6577321179211,804.110459635267L552.8385232109576,834.3534860329237Z" fill="#00b2c9" stroke="#00b2c9"/><path d="M547.7634763671085,742.1531864593271L552.8385232109576,834.3534860329237L619.2363562865648,820.2630253217649Z" fill="#00b7ce" stroke="#00b7ce"/><path d="M547.7634763671085,742.1531864593271L619.2363562865648,820.2630253217649L616.1804128368385,722.3843393439893Z" fill="#00b4cc" stroke="#00b4cc"/><path d="M616.1804128368385,722.3843393439893L619.2363562865648,820.2630253217649L729.1632459417451,795.7669225090649Z" fill="#00bbd3" stroke="#00bbd3"/><path d="M616.1804128368385,722.3843393439893L729.1632459417451,795.7669225090649L697.9501987225376,706.2569964141585Z" fill="#00b8d0" stroke="#00b8d0"/><path d="M697.9501987225376,706.2569964141585L729.1632459417451,795.7669225090649L828.3612175530288,710.4862434626557Z" fill="#00bdd6" stroke="#00bdd6"/><path d="M828.3612175530288,710.4862434626557L729.1632459417451,795.7669225090649L804.0302369208075,815.3820554784033Z" fill="#00c3dd" stroke="#00c3dd"/><path d="M828.3612175530288,710.4862434626557L804.0302369208075,815.3820554784033L868.1141212407965,813.8731100503355Z" fill="#00c7e1" stroke="#00c7e1"/><path d="M828.3612175530288,710.4862434626557L868.1141212407965,813.8731100503355L870.6592188542709,705.3261485428084Z" fill="#00c5df" stroke="#00c5df"/><path d="M870.6592188542709,705.3261485428084L868.1141212407965,813.8731100503355L984.3912220245693,785.1903126877733Z" fill="#00cbe6" stroke="#00cbe6"/><path d="M870.6592188542709,705.3261485428084L984.3912220245693,785.1903126877733L987.2560831729788,728.0441435461398Z" fill="#00cbe6" stroke="#00cbe6"/><path d="M987.2560831729788,728.0441435461398L984.3912220245693,785.1903126877733L1067.9580440721475,742.2467054449953Z" fill="#00d2ed" stroke="#00d2ed"/><path d="M1067.9580440721475,742.2467054449953L984.3912220245693,785.1903126877733L1058.1584662222303,829.0433396748267Z" fill="#00d7f4" stroke="#00d7f4"/><path d="M1067.9580440721475,742.2467054449953L1058.1584662222303,829.0433396748267L1121.412753383629,808.00511818612Z" fill="#00dcf8" stroke="#00dcf8"/><path d="M1067.9580440721475,742.2467054449953L1121.412753383629,808.00511818612L1126.2427321914583,702.2233555058483Z" fill="#00d9f5" stroke="#00d9f5"/><path d="M1126.2427321914583,702.2233555058483L1121.412753383629,808.00511818612L1209.4160806026775,797.2198068106081Z" fill="#00defa" stroke="#00defa"/><path d="M1126.2427321914583,702.2233555058483L1209.4160806026775,797.2198068106081L1252.7704215457197,748.3016591507476Z" fill="#00e0f8" stroke="#00e0f8"/><path d="M1252.7704215457197,748.3016591507476L1209.4160806026775,797.2198068106081L1341.1610324273352,805.7493005448487Z" fill="#00e9fc" stroke="#00e9fc"/><path d="M1252.7704215457197,748.3016591507476L1341.1610324273352,805.7493005448487L1339.6474257553928,746.2422129558399Z" fill="#00eafa" stroke="#00eafa"/><path d="M1339.6474257553928,746.2422129558399L1341.1610324273352,805.7493005448487L1412.315956155071,743.5957783192862Z" fill="#00ecfa" stroke="#00ecfa"/><path d="M1412.315956155071,743.5957783192862L1341.1610324273352,805.7493005448487L1421.9690278207418,823.2440804957878Z" fill="#00eefd" stroke="#00eefd"/><path d="M1412.315956155071,743.5957783192862L1421.9690278207418,823.2440804957878L1471.3039883750025,734.8658835480455Z" fill="#00ecfa" stroke="#00ecfa"/><path d="M1471.3039883750025,734.8658835480455L1421.9690278207418,823.2440804957878L1486.047196809668,823.7976055429317Z" fill="#00effd" stroke="#00effd"/><path d="M-28.862811570288613,797.0980385725852L-63.81614094832912,897.7900644566398L67.69517902168445,878.0406585487071Z" fill="#1b919b" stroke="#1b919b"/><path d="M-28.862811570288613,797.0980385725852L67.69517902168445,878.0406585487071L52.77934622135945,814.1676303138956Z" fill="#17919f" stroke="#17919f"/><path d="M52.77934622135945,814.1676303138956L67.69517902168445,878.0406585487071L136.75140744890086,788.1695990124717Z" fill="#1295a4" stroke="#1295a4"/><path d="M136.75140744890086,788.1695990124717L67.69517902168445,878.0406585487071L134.7691325400956,890.2725756878499Z" fill="#1099a6" stroke="#1099a6"/><path d="M136.75140744890086,788.1695990124717L134.7691325400956,890.2725756878499L199.17365143774077,825.0250940816477Z" fill="#0c9aaa" stroke="#0c9aaa"/><path d="M199.17365143774077,825.0250940816477L134.7691325400956,890.2725756878499L206.94169405731373,903.441010133829Z" fill="#0aa0ac" stroke="#0aa0ac"/><path d="M199.17365143774077,825.0250940816477L206.94169405731373,903.441010133829L289.7435345395934,893.9304698444903Z" fill="#05a4b1" stroke="#05a4b1"/><path d="M199.17365143774077,825.0250940816477L289.7435345395934,893.9304698444903L323.4340013121255,831.8615858617704Z" fill="#01a4b4" stroke="#01a4b4"/><path d="M323.4340013121255,831.8615858617704L289.7435345395934,893.9304698444903L394.376366592478,880.5646692577284Z" fill="#00abba" stroke="#00abba"/><path d="M323.4340013121255,831.8615858617704L394.376366592478,880.5646692577284L380.83177408901975,805.3604745911434Z" fill="#00aabd" stroke="#00aabd"/><path d="M380.83177408901975,805.3604745911434L394.376366592478,880.5646692577284L454.6735124546103,866.9334224995691Z" fill="#00afc1" stroke="#00afc1"/><path d="M380.83177408901975,805.3604745911434L454.6735124546103,866.9334224995691L474.6577321179211,804.110459635267Z" fill="#00aec4" stroke="#00aec4"/><path d="M474.6577321179211,804.110459635267L454.6735124546103,866.9334224995691L536.3149649091065,871.2137058132794Z" fill="#00b5c8" stroke="#00b5c8"/><path d="M474.6577321179211,804.110459635267L536.3149649091065,871.2137058132794L552.8385232109576,834.3534860329237Z" fill="#00b7cb" stroke="#00b7cb"/><path d="M552.8385232109576,834.3534860329237L536.3149649091065,871.2137058132794L635.8043825102504,866.5670855832286Z" fill="#00bdd0" stroke="#00bdd0"/><path d="M552.8385232109576,834.3534860329237L635.8043825102504,866.5670855832286L619.2363562865648,820.2630253217649Z" fill="#00bdd2" stroke="#00bdd2"/><path d="M619.2363562865648,820.2630253217649L635.8043825102504,866.5670855832286L729.1632459417451,795.7669225090649Z" fill="#00c0d7" stroke="#00c0d7"/><path d="M729.1632459417451,795.7669225090649L635.8043825102504,866.5670855832286L733.2227371365298,906.8818003882188Z" fill="#00c6da" stroke="#00c6da"/><path d="M729.1632459417451,795.7669225090649L733.2227371365298,906.8818003882188L804.0302369208075,815.3820554784033Z" fill="#00c8df" stroke="#00c8df"/><path d="M804.0302369208075,815.3820554784033L733.2227371365298,906.8818003882188L814.0614126855507,895.6462844484486Z" fill="#00cee1" stroke="#00cee1"/><path d="M804.0302369208075,815.3820554784033L814.0614126855507,895.6462844484486L868.1141212407965,813.8731100503355Z" fill="#00cde5" stroke="#00cde5"/><path d="M868.1141212407965,813.8731100503355L814.0614126855507,895.6462844484486L903.7460395239759,914.2242147179786Z" fill="#00d3e8" stroke="#00d3e8"/><path d="M868.1141212407965,813.8731100503355L903.7460395239759,914.2242147179786L952.8512931917794,887.7797587960958Z" fill="#00d6ec" stroke="#00d6ec"/><path d="M868.1141212407965,813.8731100503355L952.8512931917794,887.7797587960958L984.3912220245693,785.1903126877733Z" fill="#00d4ee" stroke="#00d4ee"/><path d="M984.3912220245693,785.1903126877733L952.8512931917794,887.7797587960958L1058.1584662222303,829.0433396748267Z" fill="#00d9f3" stroke="#00d9f3"/><path d="M1058.1584662222303,829.0433396748267L952.8512931917794,887.7797587960958L1042.1655126474798,904.2446957947686Z" fill="#00dff5" stroke="#00dff5"/><path d="M1058.1584662222303,829.0433396748267L1042.1655126474798,904.2446957947686L1141.8526706867851,876.7934952909127Z" fill="#00e4fa" stroke="#00e4fa"/><path d="M1058.1584662222303,829.0433396748267L1141.8526706867851,876.7934952909127L1121.412753383629,808.00511818612Z" fill="#00e2fd" stroke="#00e2fd"/><path d="M1121.412753383629,808.00511818612L1141.8526706867851,876.7934952909127L1209.4160806026775,797.2198068106081Z" fill="#00e5ff" stroke="#00e5ff"/><path d="M1209.4160806026775,797.2198068106081L1141.8526706867851,876.7934952909127L1212.8961307834834,877.90307708201Z" fill="#00eaff" stroke="#00eaff"/><path d="M1209.4160806026775,797.2198068106081L1212.8961307834834,877.90307708201L1341.1610324273352,805.7493005448487Z" fill="#00edff" stroke="#00edff"/><path d="M1341.1610324273352,805.7493005448487L1212.8961307834834,877.90307708201L1327.2863327886444,916.1695749207865Z" fill="#00f4ff" stroke="#00f4ff"/><path d="M1341.1610324273352,805.7493005448487L1327.2863327886444,916.1695749207865L1394.697088408284,879.0376928739715Z" fill="#00f6ff" stroke="#00f6ff"/><path d="M1341.1610324273352,805.7493005448487L1394.697088408284,879.0376928739715L1421.9690278207418,823.2440804957878Z" fill="#00f3ff" stroke="#00f3ff"/><path d="M1421.9690278207418,823.2440804957878L1394.697088408284,879.0376928739715L1498.919310051715,878.6670420167502Z" fill="#00f6ff" stroke="#00f6ff"/><path d="M1421.9690278207418,823.2440804957878L1498.919310051715,878.6670420167502L1486.047196809668,823.7976055429317Z" fill="#00f4ff" stroke="#00f4ff"/><path d="M-63.81614094832912,897.7900644566398L-61.9476839445997,1047.6093499001581L-23.59432646073401,984.8814449319616Z" fill="#1f9897" stroke="#1f9897"/><path d="M-63.81614094832912,897.7900644566398L-23.59432646073401,984.8814449319616L67.69517902168445,878.0406585487071Z" fill="#1b989b" stroke="#1b989b"/><path d="M67.69517902168445,878.0406585487071L-23.59432646073401,984.8814449319616L69.50684120994993,962.5623078562785Z" fill="#179d9f" stroke="#179d9f"/><path d="M67.69517902168445,878.0406585487071L69.50684120994993,962.5623078562785L134.7691325400956,890.2725756878499Z" fill="#129ea4" stroke="#129ea4"/><path d="M134.7691325400956,890.2725756878499L69.50684120994993,962.5623078562785L139.1462645609863,994.1253663564567Z" fill="#10a4a6" stroke="#10a4a6"/><path d="M134.7691325400956,890.2725756878499L139.1462645609863,994.1253663564567L206.94169405731373,903.441010133829Z" fill="#0ba5aa" stroke="#0ba5aa"/><path d="M206.94169405731373,903.441010133829L139.1462645609863,994.1253663564567L195.94292902736925,994.4351233111229Z" fill="#09a8ac" stroke="#09a8ac"/><path d="M206.94169405731373,903.441010133829L195.94292902736925,994.4351233111229L321.80988107575104,957.5330951088108Z" fill="#04adb2" stroke="#04adb2"/><path d="M206.94169405731373,903.441010133829L321.80988107575104,957.5330951088108L289.7435345395934,893.9304698444903Z" fill="#01abb5" stroke="#01abb5"/><path d="M289.7435345395934,893.9304698444903L321.80988107575104,957.5330951088108L394.376366592478,880.5646692577284Z" fill="#00b0ba" stroke="#00b0ba"/><path d="M394.376366592478,880.5646692577284L321.80988107575104,957.5330951088108L409.2059514496941,1004.559439640725Z" fill="#00b7be" stroke="#00b7be"/><path d="M394.376366592478,880.5646692577284L409.2059514496941,1004.559439640725L489.0742256818339,977.5754215172492Z" fill="#00bbc3" stroke="#00bbc3"/><path d="M394.376366592478,880.5646692577284L489.0742256818339,977.5754215172492L454.6735124546103,866.9334224995691Z" fill="#00b8c4" stroke="#00b8c4"/><path d="M454.6735124546103,866.9334224995691L489.0742256818339,977.5754215172492L536.3149649091065,871.2137058132794Z" fill="#00bcc9" stroke="#00bcc9"/><path d="M536.3149649091065,871.2137058132794L489.0742256818339,977.5754215172492L556.0264267132152,1003.8340286677703Z" fill="#00c3cc" stroke="#00c3cc"/><path d="M536.3149649091065,871.2137058132794L556.0264267132152,1003.8340286677703L642.5666562258266,951.7880301794503Z" fill="#00c7d0" stroke="#00c7d0"/><path d="M536.3149649091065,871.2137058132794L642.5666562258266,951.7880301794503L635.8043825102504,866.5670855832286Z" fill="#00c3d2" stroke="#00c3d2"/><path d="M635.8043825102504,866.5670855832286L642.5666562258266,951.7880301794503L733.2227371365298,906.8818003882188Z" fill="#00c9d8" stroke="#00c9d8"/><path d="M733.2227371365298,906.8818003882188L642.5666562258266,951.7880301794503L698.2952564186417,986.9331906328443Z" fill="#00cfda" stroke="#00cfda"/><path d="M733.2227371365298,906.8818003882188L698.2952564186417,986.9331906328443L807.3238884413149,957.3824409837835Z" fill="#00d3de" stroke="#00d3de"/><path d="M733.2227371365298,906.8818003882188L807.3238884413149,957.3824409837835L814.0614126855507,895.6462844484486Z" fill="#00d3e1" stroke="#00d3e1"/><path d="M814.0614126855507,895.6462844484486L807.3238884413149,957.3824409837835L903.7460395239759,914.2242147179786Z" fill="#00d7e6" stroke="#00d7e6"/><path d="M903.7460395239759,914.2242147179786L807.3238884413149,957.3824409837835L902.0221722312272,954.0066290693358Z" fill="#00dce8" stroke="#00dce8"/><path d="M903.7460395239759,914.2242147179786L902.0221722312272,954.0066290693358L966.1015508836135,979.411523087183Z" fill="#00e0ed" stroke="#00e0ed"/><path d="M903.7460395239759,914.2242147179786L966.1015508836135,979.411523087183L952.8512931917794,887.7797587960958Z" fill="#00dfee" stroke="#00dfee"/><path d="M952.8512931917794,887.7797587960958L966.1015508836135,979.411523087183L1042.1655126474798,904.2446957947686Z" fill="#00e3f2" stroke="#00e3f2"/><path d="M1042.1655126474798,904.2446957947686L966.1015508836135,979.411523087183L1060.4943138139788,964.3051923473831Z" fill="#00e8f5" stroke="#00e8f5"/><path d="M1042.1655126474798,904.2446957947686L1060.4943138139788,964.3051923473831L1141.8526706867851,876.7934952909127Z" fill="#00e9fa" stroke="#00e9fa"/><path d="M1141.8526706867851,876.7934952909127L1060.4943138139788,964.3051923473831L1157.4999305966776,991.7298366513569Z" fill="#00effe" stroke="#00effe"/><path d="M1141.8526706867851,876.7934952909127L1157.4999305966776,991.7298366513569L1213.1685690640006,950.2263403870165Z" fill="#00f2ff" stroke="#00f2ff"/><path d="M1141.8526706867851,876.7934952909127L1213.1685690640006,950.2263403870165L1212.8961307834834,877.90307708201Z" fill="#00f0ff" stroke="#00f0ff"/><path d="M1212.8961307834834,877.90307708201L1213.1685690640006,950.2263403870165L1327.2863327886444,916.1695749207865Z" fill="#00f6ff" stroke="#00f6ff"/><path d="M1327.2863327886444,916.1695749207865L1213.1685690640006,950.2263403870165L1292.4770821107086,994.5687974558678Z" fill="#00fbff" stroke="#00fbff"/><path d="M1327.2863327886444,916.1695749207865L1292.4770821107086,994.5687974558678L1387.763506162446,981.8498059688136Z" fill="#00ffff" stroke="#00ffff"/><path d="M1327.2863327886444,916.1695749207865L1387.763506162446,981.8498059688136L1394.697088408284,879.0376928739715Z" fill="#00fdff" stroke="#00fdff"/><path d="M1394.697088408284,879.0376928739715L1387.763506162446,981.8498059688136L1498.9806824515108,988.1114088871982Z" fill="#00ffff" stroke="#00ffff"/><path d="M1394.697088408284,879.0376928739715L1498.9806824515108,988.1114088871982L1498.919310051715,878.6670420167502Z" fill="#00fcff" stroke="#00fcff"/><path d="M-23.59432646073401,984.8814449319616L-61.9476839445997,1047.6093499001581L19.971334404544905,1064.5679545996245Z" fill="#1c9a9a" stroke="#1c9a9a"/><path d="M-23.59432646073401,984.8814449319616L19.971334404544905,1064.5679545996245L69.50684120994993,962.5623078562785Z" fill="#189d9e" stroke="#189d9e"/><path d="M69.50684120994993,962.5623078562785L19.971334404544905,1064.5679545996245L130.0948117428925,1062.1931484120432Z" fill="#13a1a2" stroke="#13a1a2"/><path d="M69.50684120994993,962.5623078562785L130.0948117428925,1062.1931484120432L139.1462645609863,994.1253663564567Z" fill="#10a4a6" stroke="#10a4a6"/><path d="M139.1462645609863,994.1253663564567L130.0948117428925,1062.1931484120432L195.94292902736925,994.4351233111229Z" fill="#0ca7aa" stroke="#0ca7aa"/><path d="M195.94292902736925,994.4351233111229L130.0948117428925,1062.1931484120432L218.16730152117088,1049.1082476289012Z" fill="#09a8ac" stroke="#09a8ac"/><path d="M195.94292902736925,994.4351233111229L218.16730152117088,1049.1082476289012L321.80988107575104,957.5330951088108Z" fill="#03adb2" stroke="#03adb2"/><path d="M321.80988107575104,957.5330951088108L218.16730152117088,1049.1082476289012L280.8410240977537,1070.157304891618Z" fill="#01afb5" stroke="#01afb5"/><path d="M321.80988107575104,957.5330951088108L280.8410240977537,1070.157304891618L384.90822921856306,1069.3122962443158Z" fill="#00b3ba" stroke="#00b3ba"/><path d="M321.80988107575104,957.5330951088108L384.90822921856306,1069.3122962443158L409.2059514496941,1004.559439640725Z" fill="#00b7be" stroke="#00b7be"/><path d="M409.2059514496941,1004.559439640725L384.90822921856306,1069.3122962443158L487.56559713045135,1039.038645523833Z" fill="#00bbc3" stroke="#00bbc3"/><path d="M409.2059514496941,1004.559439640725L487.56559713045135,1039.038645523833L489.0742256818339,977.5754215172492Z" fill="#00bec6" stroke="#00bec6"/><path d="M489.0742256818339,977.5754215172492L487.56559713045135,1039.038645523833L556.0264267132152,1003.8340286677703Z" fill="#00c2ca" stroke="#00c2ca"/><path d="M556.0264267132152,1003.8340286677703L487.56559713045135,1039.038645523833L576.7834397300612,1050.8755071787164Z" fill="#00c4cd" stroke="#00c4cd"/><path d="M556.0264267132152,1003.8340286677703L576.7834397300612,1050.8755071787164L637.1982875256799,1046.2142542377114Z" fill="#00c8d1" stroke="#00c8d1"/><path d="M556.0264267132152,1003.8340286677703L637.1982875256799,1046.2142542377114L642.5666562258266,951.7880301794503Z" fill="#00c9d3" stroke="#00c9d3"/><path d="M642.5666562258266,951.7880301794503L637.1982875256799,1046.2142542377114L698.2952564186417,986.9331906328443Z" fill="#00cdd7" stroke="#00cdd7"/><path d="M698.2952564186417,986.9331906328443L637.1982875256799,1046.2142542377114L738.0212191061582,1041.8846280698199Z" fill="#00cfda" stroke="#00cfda"/><path d="M698.2952564186417,986.9331906328443L738.0212191061582,1041.8846280698199L807.3238884413149,957.3824409837835Z" fill="#00d3de" stroke="#00d3de"/><path d="M807.3238884413149,957.3824409837835L738.0212191061582,1041.8846280698199L802.5590881134849,1080.1032821519766Z" fill="#00d6e1" stroke="#00d6e1"/><path d="M807.3238884413149,957.3824409837835L802.5590881134849,1080.1032821519766L902.0221722312272,954.0066290693358Z" fill="#00dae6" stroke="#00dae6"/><path d="M902.0221722312272,954.0066290693358L802.5590881134849,1080.1032821519766L916.9561118353158,1086.3989886338823Z" fill="#00dce9" stroke="#00dce9"/><path d="M902.0221722312272,954.0066290693358L916.9561118353158,1086.3989886338823L966.1015508836135,979.411523087183Z" fill="#00e1ed" stroke="#00e1ed"/><path d="M966.1015508836135,979.411523087183L916.9561118353158,1086.3989886338823L995.6631439516786,1038.6514422297478Z" fill="#00e3f0" stroke="#00e3f0"/><path d="M966.1015508836135,979.411523087183L995.6631439516786,1038.6514422297478L1060.4943138139788,964.3051923473831Z" fill="#00e7f4" stroke="#00e7f4"/><path d="M1060.4943138139788,964.3051923473831L995.6631439516786,1038.6514422297478L1041.3391601166222,1088.6293565761298Z" fill="#00e9f6" stroke="#00e9f6"/><path d="M1060.4943138139788,964.3051923473831L1041.3391601166222,1088.6293565761298L1143.8676792324986,1075.8875920344144Z" fill="#00ecfa" stroke="#00ecfa"/><path d="M1060.4943138139788,964.3051923473831L1143.8676792324986,1075.8875920344144L1157.4999305966776,991.7298366513569Z" fill="#00effe" stroke="#00effe"/><path d="M1157.4999305966776,991.7298366513569L1143.8676792324986,1075.8875920344144L1228.0500557739288,1040.7415848306846Z" fill="#00f4ff" stroke="#00f4ff"/><path d="M1157.4999305966776,991.7298366513569L1228.0500557739288,1040.7415848306846L1213.1685690640006,950.2263403870165Z" fill="#00f5ff" stroke="#00f5ff"/><path d="M1213.1685690640006,950.2263403870165L1228.0500557739288,1040.7415848306846L1292.4770821107086,994.5687974558678Z" fill="#00f9ff" stroke="#00f9ff"/><path d="M1292.4770821107086,994.5687974558678L1228.0500557739288,1040.7415848306846L1320.296194809489,1051.0244377865456Z" fill="#00fcff" stroke="#00fcff"/><path d="M1292.4770821107086,994.5687974558678L1320.296194809489,1051.0244377865456L1387.763506162446,981.8498059688136Z" fill="#00ffff" stroke="#00ffff"/><path d="M1387.763506162446,981.8498059688136L1320.296194809489,1051.0244377865456L1375.8925447729416,1060.9054242214188Z" fill="#00ffff" stroke="#00ffff"/><path d="M1387.763506162446,981.8498059688136L1375.8925447729416,1060.9054242214188L1485.3209318511654,1063.917801999487Z" fill="#00ffff" stroke="#00ffff"/><path d="M1387.763506162446,981.8498059688136L1485.3209318511654,1063.917801999487L1498.9806824515108,988.1114088871982Z" fill="#00ffff" stroke="#00ffff"/><path d="M19.971334404544905,1064.5679545996245L916.9561118353158,1086.3989886338823L280.8410240977537,1070.157304891618Z" fill="#00b9c1" stroke="#00b9c1"/><path d="M19.971334404544905,1064.5679545996245L280.8410240977537,1070.157304891618L130.0948117428925,1062.1931484120432Z" fill="#0da6a9" stroke="#0da6a9"/><path d="M130.0948117428925,1062.1931484120432L280.8410240977537,1070.157304891618L218.16730152117088,1049.1082476289012Z" fill="#07aaaf" stroke="#07aaaf"/><path d="M280.8410240977537,1070.157304891618L916.9561118353158,1086.3989886338823L802.5590881134849,1080.1032821519766Z" fill="#00cdd8" stroke="#00cdd8"/><path d="M280.8410240977537,1070.157304891618L802.5590881134849,1080.1032821519766L384.90822921856306,1069.3122962443158Z" fill="#00c0c8" stroke="#00c0c8"/><path d="M384.90822921856306,1069.3122962443158L802.5590881134849,1080.1032821519766L576.7834397300612,1050.8755071787164Z" fill="#00c8d1" stroke="#00c8d1"/><path d="M384.90822921856306,1069.3122962443158L576.7834397300612,1050.8755071787164L487.56559713045135,1039.038645523833Z" fill="#00c0c8" stroke="#00c0c8"/><path d="M576.7834397300612,1050.8755071787164L802.5590881134849,1080.1032821519766L637.1982875256799,1046.2142542377114Z" fill="#00ced8" stroke="#00ced8"/><path d="M637.1982875256799,1046.2142542377114L802.5590881134849,1080.1032821519766L738.0212191061582,1041.8846280698199Z" fill="#00d2dc" stroke="#00d2dc"/><path d="M916.9561118353158,1086.3989886338823L1041.3391601166222,1088.6293565761298L995.6631439516786,1038.6514422297478Z" fill="#00e5f2" stroke="#00e5f2"/><path d="M1041.3391601166222,1088.6293565761298L1485.3209318511654,1063.917801999487L1143.8676792324986,1075.8875920344144Z" fill="#00f7ff" stroke="#00f7ff"/><path d="M1143.8676792324986,1075.8875920344144L1485.3209318511654,1063.917801999487L1375.8925447729416,1060.9054242214188Z" fill="#00ffff" stroke="#00ffff"/><path d="M1143.8676792324986,1075.8875920344144L1375.8925447729416,1060.9054242214188L1320.296194809489,1051.0244377865456Z" fill="#00fcff" stroke="#00fcff"/><path d="M1143.8676792324986,1075.8875920344144L1320.296194809489,1051.0244377865456L1228.0500557739288,1040.7415848306846Z" fill="#00f8ff" stroke="#00f8ff"/></g></svg>